<?xml version="1.0" standalone="no"?>
<!DOCTYPE svg PUBLIC "-//W3C//DTD SVG 20010904//EN"
 "http://www.w3.org/TR/2001/REC-SVG-20010904/DTD/svg10.dtd">
<svg version="1.0" xmlns="http://www.w3.org/2000/svg"
 width="360.000000pt" height="360.000000pt" viewBox="0 0 360.000000 360.000000"
 preserveAspectRatio="xMidYMid meet">

<g transform="translate(0.000000,360.000000) scale(0.100000,-0.100000)"
fill="#FFFFFF" stroke="none">
<path d="M1681 3119 c-71 -14 -186 -74 -242 -126 -67 -62 -124 -149 -151 -232
-18 -56 -22 -97 -26 -278 l-4 -213 -113 0 c-86 0 -115 -3 -125 -15 -9 -10 -11
-82 -7 -282 3 -236 6 -276 25 -335 46 -151 138 -291 254 -388 111 -93 282
-165 410 -172 l48 -3 0 -162 0 -163 -268 0 c-304 0 -334 -5 -397 -68 -48 -48
-65 -81 -72 -144 -4 -37 -2 -52 8 -59 19 -12 1530 -11 1548 0 18 12 16 76 -4
125 -9 20 -34 54 -56 76 -66 64 -101 70 -406 70 l-263 0 0 160 c0 121 3 160
13 160 6 1 46 7 87 14 254 46 465 211 575 449 58 126 66 175 72 453 5 226 4
252 -11 267 -14 14 -38 17 -132 17 l-114 0 0 198 c0 210 -9 273 -52 362 -102
214 -356 336 -597 289z m292 -106 c124 -59 218 -170 252 -298 22 -88 22 -883
-1 -970 -33 -127 -115 -225 -242 -288 -83 -41 -89 -42 -181 -42 -76 0 -109 5
-157 23 -71 27 -167 101 -208 160 -34 49 -76 161 -76 202 l0 30 319 0 c266 0
321 2 331 15 16 19 4 52 -23 59 -12 3 -160 6 -329 6 l-308 0 0 80 0 80 326 2
c299 3 328 5 338 21 8 12 8 22 0 35 -10 15 -39 17 -338 20 l-327 2 3 81 3 80
295 -1 c162 0 309 2 327 6 36 7 52 36 33 59 -10 12 -69 15 -334 17 l-321 3 -3
83 -3 82 330 0 c323 0 330 0 336 20 15 48 5 50 -338 50 l-320 0 6 51 c10 79
58 172 125 238 98 98 181 131 322 128 83 -2 104 -7 163 -34z m-685 -1310 c50
-142 144 -253 265 -313 287 -140 622 -12 743 285 28 68 28 75 32 292 l4 222
80 3 c60 2 82 0 86 -10 2 -7 2 -109 -1 -225 -5 -220 -13 -272 -59 -380 -75
-179 -231 -325 -416 -390 -110 -39 -279 -49 -383 -23 -242 62 -431 240 -510
481 -20 63 -23 94 -27 307 l-4 237 79 3 78 3 6 -215 c5 -185 9 -224 27 -277z
m-188 -158 c0 -5 -5 -3 -10 5 -5 8 -10 20 -10 25 0 6 5 3 10 -5 5 -8 10 -19
10 -25z m1270 -139 c0 -2 -8 -10 -17 -17 -16 -13 -17 -12 -4 4 13 16 21 21 21
13z m37 -754 c32 -17 83 -76 83 -96 0 -8 -211 -10 -692 -9 -380 2 -693 4 -695
6 -8 8 45 73 76 94 l34 23 581 0 c529 -1 584 -2 613 -18z"/>
</g>
</svg>
